<svg width="367" height="367" viewBox="0 0 367 367" fill="none" xmlns="http://www.w3.org/2000/svg">
<rect width="367" height="367" rx="60" fill="black"/>
<mask id="mask0_52_153" style="mask-type:alpha" maskUnits="userSpaceOnUse" x="0" y="0" width="367" height="367">
<rect width="367" height="367" rx="60" fill="black"/>
</mask>
<g mask="url(#mask0_52_153)">
<path d="M296.498 269.924H214.724V256.988L236.438 239.894V129.014L179.15 269.693H159.053L100.841 127.859V244.283L126.482 254.447L119.09 269.462H59.2606V256.526L80.9746 239.432V113.537L55.3336 102.68L62.9566 87.665H127.868L180.536 216.101L232.742 87.665H300.194V100.601L278.249 117.695V247.286L303.89 254.909L296.498 269.924ZM376.81 142.181C392.98 142.181 405.454 148.341 414.232 160.661C423.164 172.981 427.476 190.075 427.168 211.943H344.008C345.548 221.337 348.859 228.883 353.941 234.581C359.023 240.125 365.645 242.897 373.807 242.897C384.587 242.897 400.064 237.507 420.238 226.727L427.168 239.894L392.056 267.845C382.97 270.155 372.421 271.31 360.409 271.31C349.167 271.31 339.003 268.692 329.917 263.456C320.985 258.066 313.978 250.751 308.896 241.511C303.968 232.271 301.504 222.03 301.504 210.788C301.504 198.622 305.431 187.303 313.285 176.831C321.139 166.205 330.918 157.812 342.622 151.652C354.48 145.338 365.876 142.181 376.81 142.181ZM364.105 168.977C357.329 168.977 352.247 171.287 348.859 175.907C345.471 180.373 343.623 187.303 343.315 196.697H387.436C386.204 187.149 383.894 180.142 380.506 175.676C377.272 171.21 371.728 168.977 363.874 168.977H364.105Z" fill="white"/>
</g>
</svg>
