<svg width="16" height="16" viewBox="0 0 499 599" fill="none" xmlns="http://www.w3.org/2000/svg">
<path d="M499 358.123C499 339.61 484.928 324.54 467.563 324.54H216.466C199.101 324.54 185.029 339.61 185.029 358.123C185.029 376.636 199.076 391.705 216.466 391.705H467.563C484.928 391.73 499 376.661 499 358.123Z" fill="#B3B1B0"/>
<path d="M36.9759 453.732L144.585 562.538C168.861 586.964 202.419 598.766 239.47 598.766C276.521 598.766 310.078 585.991 334.405 561.49L398.975 495.697C411.7 482.873 411.251 461.641 398.002 448.292C384.754 434.944 363.696 434.495 350.996 447.319L284.23 512.364C272.703 524.016 256.735 528.881 239.096 528.881C221.456 528.881 205.513 524.016 193.936 512.364L86.7012 403.507C75.1493 391.856 69.336 374.815 69.336 357.025C69.336 339.236 75.1493 323.168 86.7012 311.517L193.612 202.236C205.164 190.584 221.456 186.143 239.071 186.143C256.685 186.143 272.653 191.008 284.205 202.66L350.971 267.679C363.696 280.529 384.754 280.08 398.002 266.731C411.251 253.358 411.7 232.126 398.975 219.301L334.405 153.533C317.989 137.13 297.32 125.638 274.724 120.35L273.876 120.175L334.929 57.7254C347.703 44.9011 347.254 23.6437 334.005 10.2955C320.757 -3.05275 299.674 -3.4769 286.925 9.34739L36.9759 261.342C12.6995 285.843 0 319.65 0 357.025C0 394.4 12.6995 429.281 36.9759 453.732Z" fill="#E7A41F"/>
<mask id="mask0_56_194" style="mask-type:alpha" maskUnits="userSpaceOnUse" x="0" y="0" width="409" height="599">
<path d="M36.9759 453.732L144.585 562.538C168.861 586.964 202.419 598.766 239.47 598.766C276.521 598.766 310.078 585.991 334.405 561.49L398.975 495.697C411.7 482.873 411.251 461.641 398.002 448.292C384.754 434.944 363.696 434.495 350.996 447.319L284.23 512.364C272.703 524.016 256.735 528.881 239.096 528.881C221.456 528.881 205.513 524.016 193.936 512.364L86.7012 403.507C75.1493 391.856 69.336 374.815 69.336 357.025C69.336 339.236 75.1493 323.168 86.7012 311.517L193.612 202.236C205.164 190.584 221.456 186.143 239.071 186.143C256.685 186.143 272.653 191.008 284.205 202.66L350.971 267.679C363.696 280.529 384.754 280.08 398.002 266.731C411.251 253.358 411.7 232.126 398.975 219.301L334.405 153.533C317.989 137.13 297.32 125.638 274.724 120.35L273.876 120.175L334.929 57.7254C347.703 44.9011 347.254 23.6437 334.005 10.2955C320.757 -3.05275 299.674 -3.4769 286.925 9.34739L36.9759 261.342C12.6995 285.843 0 319.65 0 357.025C0 394.4 12.6995 429.281 36.9759 453.732Z" fill="#E7A41F"/>
</mask>
<g mask="url(#mask0_56_194)">
<rect x="-0.404312" y="228.034" width="288.012" height="139.674" rx="1.47604" transform="rotate(45.3675 -0.404312 228.034)" fill="black"/>
<rect x="-21.3759" y="308.429" width="476.265" height="83.4846" rx="1.47604" transform="rotate(-46.1208 -21.3759 308.429)" fill="black"/>
</g>
</svg>
